<mxfile host="app.diagrams.net" agent="Mozilla/5.0 (Windows NT 10.0; Win64; x64) AppleWebKit/537.36 (KHTML, like Gecko) Chrome/131.0.0.0 Safari/537.36 Edg/131.0.0.0" version="26.0.16">
  <diagram name="Page-1" id="1h9MlOvjjE9mvNR7ryWE">
    <mxGraphModel dx="1682" dy="965" grid="1" gridSize="10" guides="1" tooltips="1" connect="1" arrows="1" fold="1" page="0" pageScale="1" pageWidth="827" pageHeight="1169" math="0" shadow="0">
      <root>
        <mxCell id="0" />
        <mxCell id="1" parent="0" />
        <mxCell id="nr7JULkrr1C1Ja3gNZ5H-76" value="" style="rounded=0;whiteSpace=wrap;html=1;shadow=0;fillColor=light-dark(#EBEBEB,var(--ge-dark-color, #121212));" parent="1" vertex="1">
          <mxGeometry x="-290" y="-90" width="2110" height="770" as="geometry" />
        </mxCell>
        <mxCell id="nr7JULkrr1C1Ja3gNZ5H-39" style="edgeStyle=orthogonalEdgeStyle;rounded=0;orthogonalLoop=1;jettySize=auto;html=1;exitX=0.5;exitY=1;exitDx=0;exitDy=0;entryX=0.5;entryY=0;entryDx=0;entryDy=0;" parent="1" source="nr7JULkrr1C1Ja3gNZ5H-20" target="nr7JULkrr1C1Ja3gNZ5H-35" edge="1">
          <mxGeometry relative="1" as="geometry" />
        </mxCell>
        <mxCell id="nr7JULkrr1C1Ja3gNZ5H-20" value="branch" style="rounded=1;whiteSpace=wrap;html=1;" parent="1" vertex="1">
          <mxGeometry x="60" y="290" width="90" height="30" as="geometry" />
        </mxCell>
        <mxCell id="nr7JULkrr1C1Ja3gNZ5H-58" style="edgeStyle=orthogonalEdgeStyle;rounded=0;orthogonalLoop=1;jettySize=auto;html=1;exitX=0.5;exitY=1;exitDx=0;exitDy=0;entryX=0.5;entryY=0;entryDx=0;entryDy=0;" parent="1" source="nr7JULkrr1C1Ja3gNZ5H-21" target="nr7JULkrr1C1Ja3gNZ5H-45" edge="1">
          <mxGeometry relative="1" as="geometry" />
        </mxCell>
        <mxCell id="nr7JULkrr1C1Ja3gNZ5H-21" value="branch" style="rounded=1;whiteSpace=wrap;html=1;" parent="1" vertex="1">
          <mxGeometry x="180" y="290" width="90" height="30" as="geometry" />
        </mxCell>
        <mxCell id="nr7JULkrr1C1Ja3gNZ5H-22" value="branch" style="rounded=1;whiteSpace=wrap;html=1;" parent="1" vertex="1">
          <mxGeometry x="310" y="290" width="90" height="30" as="geometry" />
        </mxCell>
        <mxCell id="nr7JULkrr1C1Ja3gNZ5H-60" style="edgeStyle=orthogonalEdgeStyle;rounded=0;orthogonalLoop=1;jettySize=auto;html=1;exitX=0.5;exitY=1;exitDx=0;exitDy=0;entryX=0.5;entryY=0;entryDx=0;entryDy=0;" parent="1" source="nr7JULkrr1C1Ja3gNZ5H-23" target="nr7JULkrr1C1Ja3gNZ5H-57" edge="1">
          <mxGeometry relative="1" as="geometry" />
        </mxCell>
        <mxCell id="nr7JULkrr1C1Ja3gNZ5H-23" value="branch" style="rounded=1;whiteSpace=wrap;html=1;" parent="1" vertex="1">
          <mxGeometry x="450" y="290" width="90" height="30" as="geometry" />
        </mxCell>
        <mxCell id="nr7JULkrr1C1Ja3gNZ5H-31" value="" style="edgeStyle=orthogonalEdgeStyle;rounded=0;orthogonalLoop=1;jettySize=auto;html=1;" parent="1" source="nr7JULkrr1C1Ja3gNZ5H-24" target="nr7JULkrr1C1Ja3gNZ5H-20" edge="1">
          <mxGeometry relative="1" as="geometry" />
        </mxCell>
        <mxCell id="nr7JULkrr1C1Ja3gNZ5H-24" value="branch admin" style="shape=umlActor;verticalLabelPosition=bottom;verticalAlign=top;html=1;outlineConnect=0;" parent="1" vertex="1">
          <mxGeometry x="90" y="200" width="30" height="60" as="geometry" />
        </mxCell>
        <mxCell id="nr7JULkrr1C1Ja3gNZ5H-32" value="" style="edgeStyle=orthogonalEdgeStyle;rounded=0;orthogonalLoop=1;jettySize=auto;html=1;" parent="1" source="nr7JULkrr1C1Ja3gNZ5H-28" target="nr7JULkrr1C1Ja3gNZ5H-21" edge="1">
          <mxGeometry relative="1" as="geometry" />
        </mxCell>
        <mxCell id="nr7JULkrr1C1Ja3gNZ5H-28" value="branch admin" style="shape=umlActor;verticalLabelPosition=bottom;verticalAlign=top;html=1;outlineConnect=0;" parent="1" vertex="1">
          <mxGeometry x="210" y="200" width="30" height="60" as="geometry" />
        </mxCell>
        <mxCell id="nr7JULkrr1C1Ja3gNZ5H-33" value="" style="edgeStyle=orthogonalEdgeStyle;rounded=0;orthogonalLoop=1;jettySize=auto;html=1;" parent="1" source="nr7JULkrr1C1Ja3gNZ5H-29" target="nr7JULkrr1C1Ja3gNZ5H-22" edge="1">
          <mxGeometry relative="1" as="geometry" />
        </mxCell>
        <mxCell id="nr7JULkrr1C1Ja3gNZ5H-29" value="branch admin" style="shape=umlActor;verticalLabelPosition=bottom;verticalAlign=top;html=1;outlineConnect=0;" parent="1" vertex="1">
          <mxGeometry x="340" y="200" width="30" height="60" as="geometry" />
        </mxCell>
        <mxCell id="nr7JULkrr1C1Ja3gNZ5H-34" value="" style="edgeStyle=orthogonalEdgeStyle;rounded=0;orthogonalLoop=1;jettySize=auto;html=1;" parent="1" source="nr7JULkrr1C1Ja3gNZ5H-30" target="nr7JULkrr1C1Ja3gNZ5H-23" edge="1">
          <mxGeometry relative="1" as="geometry" />
        </mxCell>
        <mxCell id="nr7JULkrr1C1Ja3gNZ5H-30" value="branch admin" style="shape=umlActor;verticalLabelPosition=bottom;verticalAlign=top;html=1;outlineConnect=0;" parent="1" vertex="1">
          <mxGeometry x="480" y="200" width="30" height="60" as="geometry" />
        </mxCell>
        <mxCell id="nr7JULkrr1C1Ja3gNZ5H-37" value="" style="group" parent="1" vertex="1" connectable="0">
          <mxGeometry x="65" y="340" width="80" height="130" as="geometry" />
        </mxCell>
        <mxCell id="nr7JULkrr1C1Ja3gNZ5H-3" value="staff" style="shape=umlActor;verticalLabelPosition=bottom;verticalAlign=top;html=1;outlineConnect=0;" parent="nr7JULkrr1C1Ja3gNZ5H-37" vertex="1">
          <mxGeometry x="10" y="10" width="30" height="60" as="geometry" />
        </mxCell>
        <mxCell id="nr7JULkrr1C1Ja3gNZ5H-5" value="staff" style="shape=umlActor;verticalLabelPosition=bottom;verticalAlign=top;html=1;outlineConnect=0;" parent="nr7JULkrr1C1Ja3gNZ5H-37" vertex="1">
          <mxGeometry x="20" y="20" width="30" height="60" as="geometry" />
        </mxCell>
        <mxCell id="nr7JULkrr1C1Ja3gNZ5H-6" value="staff" style="shape=umlActor;verticalLabelPosition=bottom;verticalAlign=top;html=1;outlineConnect=0;" parent="nr7JULkrr1C1Ja3gNZ5H-37" vertex="1">
          <mxGeometry x="30" y="30" width="30" height="60" as="geometry" />
        </mxCell>
        <mxCell id="nr7JULkrr1C1Ja3gNZ5H-7" value="staff" style="shape=umlActor;verticalLabelPosition=bottom;verticalAlign=top;html=1;outlineConnect=0;" parent="nr7JULkrr1C1Ja3gNZ5H-37" vertex="1">
          <mxGeometry x="40" y="40" width="30" height="60" as="geometry" />
        </mxCell>
        <mxCell id="nr7JULkrr1C1Ja3gNZ5H-35" value="" style="swimlane;startSize=0;" parent="nr7JULkrr1C1Ja3gNZ5H-37" vertex="1">
          <mxGeometry width="80" height="130" as="geometry" />
        </mxCell>
        <mxCell id="nr7JULkrr1C1Ja3gNZ5H-40" value="" style="group" parent="1" vertex="1" connectable="0">
          <mxGeometry x="190" y="340" width="80" height="130" as="geometry" />
        </mxCell>
        <mxCell id="nr7JULkrr1C1Ja3gNZ5H-41" value="staff" style="shape=umlActor;verticalLabelPosition=bottom;verticalAlign=top;html=1;outlineConnect=0;" parent="nr7JULkrr1C1Ja3gNZ5H-40" vertex="1">
          <mxGeometry x="10" y="10" width="30" height="60" as="geometry" />
        </mxCell>
        <mxCell id="nr7JULkrr1C1Ja3gNZ5H-42" value="staff" style="shape=umlActor;verticalLabelPosition=bottom;verticalAlign=top;html=1;outlineConnect=0;" parent="nr7JULkrr1C1Ja3gNZ5H-40" vertex="1">
          <mxGeometry x="20" y="20" width="30" height="60" as="geometry" />
        </mxCell>
        <mxCell id="nr7JULkrr1C1Ja3gNZ5H-43" value="staff" style="shape=umlActor;verticalLabelPosition=bottom;verticalAlign=top;html=1;outlineConnect=0;" parent="nr7JULkrr1C1Ja3gNZ5H-40" vertex="1">
          <mxGeometry x="30" y="30" width="30" height="60" as="geometry" />
        </mxCell>
        <mxCell id="nr7JULkrr1C1Ja3gNZ5H-44" value="staff" style="shape=umlActor;verticalLabelPosition=bottom;verticalAlign=top;html=1;outlineConnect=0;" parent="nr7JULkrr1C1Ja3gNZ5H-40" vertex="1">
          <mxGeometry x="40" y="40" width="30" height="60" as="geometry" />
        </mxCell>
        <mxCell id="nr7JULkrr1C1Ja3gNZ5H-45" value="" style="swimlane;startSize=0;" parent="nr7JULkrr1C1Ja3gNZ5H-40" vertex="1">
          <mxGeometry width="80" height="130" as="geometry" />
        </mxCell>
        <mxCell id="nr7JULkrr1C1Ja3gNZ5H-46" value="" style="group" parent="1" vertex="1" connectable="0">
          <mxGeometry x="320" y="340" width="80" height="130" as="geometry" />
        </mxCell>
        <mxCell id="nr7JULkrr1C1Ja3gNZ5H-47" value="staff" style="shape=umlActor;verticalLabelPosition=bottom;verticalAlign=top;html=1;outlineConnect=0;" parent="nr7JULkrr1C1Ja3gNZ5H-46" vertex="1">
          <mxGeometry x="10" y="10" width="30" height="60" as="geometry" />
        </mxCell>
        <mxCell id="nr7JULkrr1C1Ja3gNZ5H-48" value="staff" style="shape=umlActor;verticalLabelPosition=bottom;verticalAlign=top;html=1;outlineConnect=0;" parent="nr7JULkrr1C1Ja3gNZ5H-46" vertex="1">
          <mxGeometry x="20" y="20" width="30" height="60" as="geometry" />
        </mxCell>
        <mxCell id="nr7JULkrr1C1Ja3gNZ5H-49" value="staff" style="shape=umlActor;verticalLabelPosition=bottom;verticalAlign=top;html=1;outlineConnect=0;" parent="nr7JULkrr1C1Ja3gNZ5H-46" vertex="1">
          <mxGeometry x="30" y="30" width="30" height="60" as="geometry" />
        </mxCell>
        <mxCell id="nr7JULkrr1C1Ja3gNZ5H-50" value="staff" style="shape=umlActor;verticalLabelPosition=bottom;verticalAlign=top;html=1;outlineConnect=0;" parent="nr7JULkrr1C1Ja3gNZ5H-46" vertex="1">
          <mxGeometry x="40" y="40" width="30" height="60" as="geometry" />
        </mxCell>
        <mxCell id="nr7JULkrr1C1Ja3gNZ5H-51" value="" style="swimlane;startSize=0;" parent="nr7JULkrr1C1Ja3gNZ5H-46" vertex="1">
          <mxGeometry width="80" height="130" as="geometry" />
        </mxCell>
        <mxCell id="nr7JULkrr1C1Ja3gNZ5H-52" value="" style="group" parent="1" vertex="1" connectable="0">
          <mxGeometry x="460" y="340" width="80" height="130" as="geometry" />
        </mxCell>
        <mxCell id="nr7JULkrr1C1Ja3gNZ5H-53" value="staff" style="shape=umlActor;verticalLabelPosition=bottom;verticalAlign=top;html=1;outlineConnect=0;" parent="nr7JULkrr1C1Ja3gNZ5H-52" vertex="1">
          <mxGeometry x="10" y="10" width="30" height="60" as="geometry" />
        </mxCell>
        <mxCell id="nr7JULkrr1C1Ja3gNZ5H-54" value="staff" style="shape=umlActor;verticalLabelPosition=bottom;verticalAlign=top;html=1;outlineConnect=0;" parent="nr7JULkrr1C1Ja3gNZ5H-52" vertex="1">
          <mxGeometry x="20" y="20" width="30" height="60" as="geometry" />
        </mxCell>
        <mxCell id="nr7JULkrr1C1Ja3gNZ5H-55" value="staff" style="shape=umlActor;verticalLabelPosition=bottom;verticalAlign=top;html=1;outlineConnect=0;" parent="nr7JULkrr1C1Ja3gNZ5H-52" vertex="1">
          <mxGeometry x="30" y="30" width="30" height="60" as="geometry" />
        </mxCell>
        <mxCell id="nr7JULkrr1C1Ja3gNZ5H-56" value="staff" style="shape=umlActor;verticalLabelPosition=bottom;verticalAlign=top;html=1;outlineConnect=0;" parent="nr7JULkrr1C1Ja3gNZ5H-52" vertex="1">
          <mxGeometry x="40" y="40" width="30" height="60" as="geometry" />
        </mxCell>
        <mxCell id="nr7JULkrr1C1Ja3gNZ5H-57" value="" style="swimlane;startSize=0;" parent="nr7JULkrr1C1Ja3gNZ5H-52" vertex="1">
          <mxGeometry width="80" height="130" as="geometry" />
        </mxCell>
        <mxCell id="nr7JULkrr1C1Ja3gNZ5H-59" style="edgeStyle=orthogonalEdgeStyle;rounded=0;orthogonalLoop=1;jettySize=auto;html=1;exitX=0.5;exitY=1;exitDx=0;exitDy=0;entryX=0.436;entryY=0.004;entryDx=0;entryDy=0;entryPerimeter=0;" parent="1" source="nr7JULkrr1C1Ja3gNZ5H-22" target="nr7JULkrr1C1Ja3gNZ5H-51" edge="1">
          <mxGeometry relative="1" as="geometry" />
        </mxCell>
        <mxCell id="nr7JULkrr1C1Ja3gNZ5H-61" value="admin" style="shape=umlActor;verticalLabelPosition=bottom;verticalAlign=top;html=1;outlineConnect=0;" parent="1" vertex="1">
          <mxGeometry x="280" y="70" width="30" height="60" as="geometry" />
        </mxCell>
        <mxCell id="nr7JULkrr1C1Ja3gNZ5H-62" style="edgeStyle=orthogonalEdgeStyle;rounded=0;orthogonalLoop=1;jettySize=auto;html=1;entryX=0.5;entryY=0;entryDx=0;entryDy=0;entryPerimeter=0;" parent="1" source="nr7JULkrr1C1Ja3gNZ5H-61" target="nr7JULkrr1C1Ja3gNZ5H-24" edge="1">
          <mxGeometry relative="1" as="geometry" />
        </mxCell>
        <mxCell id="nr7JULkrr1C1Ja3gNZ5H-63" style="edgeStyle=orthogonalEdgeStyle;rounded=0;orthogonalLoop=1;jettySize=auto;html=1;entryX=0.5;entryY=0;entryDx=0;entryDy=0;entryPerimeter=0;" parent="1" source="nr7JULkrr1C1Ja3gNZ5H-61" target="nr7JULkrr1C1Ja3gNZ5H-28" edge="1">
          <mxGeometry relative="1" as="geometry" />
        </mxCell>
        <mxCell id="nr7JULkrr1C1Ja3gNZ5H-64" style="edgeStyle=orthogonalEdgeStyle;rounded=0;orthogonalLoop=1;jettySize=auto;html=1;entryX=0.5;entryY=0;entryDx=0;entryDy=0;entryPerimeter=0;" parent="1" source="nr7JULkrr1C1Ja3gNZ5H-61" target="nr7JULkrr1C1Ja3gNZ5H-29" edge="1">
          <mxGeometry relative="1" as="geometry" />
        </mxCell>
        <mxCell id="nr7JULkrr1C1Ja3gNZ5H-65" style="edgeStyle=orthogonalEdgeStyle;rounded=0;orthogonalLoop=1;jettySize=auto;html=1;entryX=0.5;entryY=0;entryDx=0;entryDy=0;entryPerimeter=0;" parent="1" source="nr7JULkrr1C1Ja3gNZ5H-61" target="nr7JULkrr1C1Ja3gNZ5H-30" edge="1">
          <mxGeometry relative="1" as="geometry" />
        </mxCell>
        <mxCell id="nr7JULkrr1C1Ja3gNZ5H-66" value="super user" style="shape=umlActor;verticalLabelPosition=bottom;verticalAlign=top;html=1;outlineConnect=0;" parent="1" vertex="1">
          <mxGeometry x="280" y="-40" width="30" height="60" as="geometry" />
        </mxCell>
        <mxCell id="nr7JULkrr1C1Ja3gNZ5H-67" style="edgeStyle=orthogonalEdgeStyle;rounded=0;orthogonalLoop=1;jettySize=auto;html=1;entryX=0.5;entryY=0;entryDx=0;entryDy=0;entryPerimeter=0;" parent="1" source="nr7JULkrr1C1Ja3gNZ5H-66" target="nr7JULkrr1C1Ja3gNZ5H-61" edge="1">
          <mxGeometry relative="1" as="geometry" />
        </mxCell>
        <mxCell id="nr7JULkrr1C1Ja3gNZ5H-68" value="&lt;h1 style=&quot;margin-top: 0px;&quot;&gt;super user&lt;/h1&gt;&lt;p&gt;Has the authority to make any changes in the system structure. Mainly he should add admins to the system.&lt;/p&gt;" style="text;html=1;whiteSpace=wrap;overflow=hidden;rounded=0;" parent="1" vertex="1">
          <mxGeometry x="340" y="-60" width="180" height="120" as="geometry" />
        </mxCell>
        <mxCell id="nr7JULkrr1C1Ja3gNZ5H-69" value="&lt;h1 style=&quot;margin-top: 0px;&quot;&gt;admin&lt;/h1&gt;&lt;p&gt;An admin can be the one responsible for a certain geographical region (i.e. MENA region, or certain governorate). He can add new branches to this region and assign a branch admin for that new branch.&lt;/p&gt;" style="text;html=1;whiteSpace=wrap;overflow=hidden;rounded=0;" parent="1" vertex="1">
          <mxGeometry x="510" y="50" width="320" height="120" as="geometry" />
        </mxCell>
        <mxCell id="nr7JULkrr1C1Ja3gNZ5H-70" value="&lt;h1 style=&quot;margin-top: 0px;&quot;&gt;branch admin&lt;/h1&gt;&lt;p&gt;The one responsible for a certain branch. He can add new staff, remove a staff, monitor the dashboard and the whole staff attendance for that particular branch.&lt;/p&gt;" style="text;html=1;whiteSpace=wrap;overflow=hidden;rounded=0;" parent="1" vertex="1">
          <mxGeometry x="560" y="200" width="320" height="120" as="geometry" />
        </mxCell>
        <mxCell id="nr7JULkrr1C1Ja3gNZ5H-71" value="&lt;h1 style=&quot;margin-top: 0px;&quot;&gt;staff&lt;/h1&gt;&lt;p&gt;The employee working at a particular branch&lt;/p&gt;" style="text;html=1;whiteSpace=wrap;overflow=hidden;rounded=0;" parent="1" vertex="1">
          <mxGeometry x="570" y="350" width="320" height="120" as="geometry" />
        </mxCell>
        <mxCell id="nr7JULkrr1C1Ja3gNZ5H-72" value="- Access to dashboard for everything&lt;div&gt;- can add any new type of users&lt;/div&gt;" style="text;html=1;align=left;verticalAlign=middle;whiteSpace=wrap;rounded=0;" parent="1" vertex="1">
          <mxGeometry x="20" y="-25" width="220" height="30" as="geometry" />
        </mxCell>
        <mxCell id="nr7JULkrr1C1Ja3gNZ5H-73" value="- Access for dashboards of branches in his region.&lt;div&gt;- Can add new branches to that region&lt;/div&gt;" style="text;html=1;align=left;verticalAlign=middle;whiteSpace=wrap;rounded=0;" parent="1" vertex="1">
          <mxGeometry x="-170" y="80" width="270" height="30" as="geometry" />
        </mxCell>
        <mxCell id="nr7JULkrr1C1Ja3gNZ5H-74" value="- Access to dashboard of his branch&lt;div&gt;- Can add, remove, or modify new staff member&lt;/div&gt;" style="text;html=1;align=left;verticalAlign=middle;whiteSpace=wrap;rounded=0;" parent="1" vertex="1">
          <mxGeometry x="-220" y="260" width="270" height="30" as="geometry" />
        </mxCell>
        <mxCell id="nr7JULkrr1C1Ja3gNZ5H-75" value="- Can see his attendance for the past month&lt;div&gt;- Can edit his information, but cannot add or remove a staff profile, even his own one.&lt;/div&gt;" style="text;html=1;align=left;verticalAlign=middle;whiteSpace=wrap;rounded=0;" parent="1" vertex="1">
          <mxGeometry x="-250" y="380" width="290" height="30" as="geometry" />
        </mxCell>
        <mxCell id="nr7JULkrr1C1Ja3gNZ5H-77" value="&lt;h1 style=&quot;margin-top: 0px;&quot;&gt;&lt;span style=&quot;background-color: light-dark(rgb(138, 219, 255), rgb(255, 255, 255));&quot;&gt;User management module&lt;/span&gt;&lt;/h1&gt;" style="text;html=1;whiteSpace=wrap;overflow=hidden;rounded=0;strokeColor=#FFFFFF;" parent="1" vertex="1">
          <mxGeometry x="135" y="-140" width="320" height="50" as="geometry" />
        </mxCell>
        <mxCell id="nr7JULkrr1C1Ja3gNZ5H-93" style="edgeStyle=orthogonalEdgeStyle;rounded=0;orthogonalLoop=1;jettySize=auto;html=1;entryX=0.5;entryY=0;entryDx=0;entryDy=0;" parent="1" source="nr7JULkrr1C1Ja3gNZ5H-80" target="nr7JULkrr1C1Ja3gNZ5H-89" edge="1">
          <mxGeometry relative="1" as="geometry" />
        </mxCell>
        <mxCell id="nr7JULkrr1C1Ja3gNZ5H-99" style="edgeStyle=orthogonalEdgeStyle;rounded=0;orthogonalLoop=1;jettySize=auto;html=1;entryX=0.5;entryY=0;entryDx=0;entryDy=0;" parent="1" source="nr7JULkrr1C1Ja3gNZ5H-80" target="nr7JULkrr1C1Ja3gNZ5H-95" edge="1">
          <mxGeometry relative="1" as="geometry" />
        </mxCell>
        <mxCell id="nr7JULkrr1C1Ja3gNZ5H-80" value="User" style="swimlane;fontStyle=1;align=center;verticalAlign=top;childLayout=stackLayout;horizontal=1;startSize=26;horizontalStack=0;resizeParent=1;resizeParentMax=0;resizeLast=0;collapsible=1;marginBottom=0;whiteSpace=wrap;html=1;" parent="1" vertex="1">
          <mxGeometry x="1170" y="-70" width="330" height="190" as="geometry" />
        </mxCell>
        <mxCell id="nr7JULkrr1C1Ja3gNZ5H-81" value="-id: string&lt;div&gt;-first_name: string&lt;/div&gt;&lt;div&gt;-last_name: string&lt;/div&gt;&lt;div&gt;-email: string&lt;/div&gt;&lt;div&gt;-national_id: string&lt;/div&gt;&lt;div&gt;-gender: [MALE, FEMALE]&lt;/div&gt;&lt;div&gt;-role: [SUPER_USER, ADMIN, BRANCH_ADMIN, STAFF]&lt;/div&gt;" style="text;strokeColor=none;fillColor=none;align=left;verticalAlign=top;spacingLeft=4;spacingRight=4;overflow=hidden;rotatable=0;points=[[0,0.5],[1,0.5]];portConstraint=eastwest;whiteSpace=wrap;html=1;" parent="nr7JULkrr1C1Ja3gNZ5H-80" vertex="1">
          <mxGeometry y="26" width="330" height="114" as="geometry" />
        </mxCell>
        <mxCell id="nr7JULkrr1C1Ja3gNZ5H-82" value="" style="line;strokeWidth=1;fillColor=none;align=left;verticalAlign=middle;spacingTop=-1;spacingLeft=3;spacingRight=3;rotatable=0;labelPosition=right;points=[];portConstraint=eastwest;strokeColor=inherit;" parent="nr7JULkrr1C1Ja3gNZ5H-80" vertex="1">
          <mxGeometry y="140" width="330" height="8" as="geometry" />
        </mxCell>
        <mxCell id="nr7JULkrr1C1Ja3gNZ5H-83" value="+ login()&lt;div&gt;+ logout()&lt;/div&gt;" style="text;strokeColor=none;fillColor=none;align=left;verticalAlign=top;spacingLeft=4;spacingRight=4;overflow=hidden;rotatable=0;points=[[0,0.5],[1,0.5]];portConstraint=eastwest;whiteSpace=wrap;html=1;" parent="nr7JULkrr1C1Ja3gNZ5H-80" vertex="1">
          <mxGeometry y="148" width="330" height="42" as="geometry" />
        </mxCell>
        <mxCell id="nr7JULkrr1C1Ja3gNZ5H-108" style="edgeStyle=orthogonalEdgeStyle;rounded=0;orthogonalLoop=1;jettySize=auto;html=1;shape=link;" parent="1" source="nr7JULkrr1C1Ja3gNZ5H-111" target="nr7JULkrr1C1Ja3gNZ5H-104" edge="1">
          <mxGeometry relative="1" as="geometry" />
        </mxCell>
        <mxCell id="nr7JULkrr1C1Ja3gNZ5H-84" value="Admin" style="swimlane;fontStyle=1;align=center;verticalAlign=top;childLayout=stackLayout;horizontal=1;startSize=26;horizontalStack=0;resizeParent=1;resizeParentMax=0;resizeLast=0;collapsible=1;marginBottom=0;whiteSpace=wrap;html=1;" parent="1" vertex="1">
          <mxGeometry x="930" y="180" width="180" height="130" as="geometry" />
        </mxCell>
        <mxCell id="nr7JULkrr1C1Ja3gNZ5H-85" value="- id: string&lt;div&gt;- user_id: string&lt;/div&gt;&lt;div&gt;- branches: List[Branch]&lt;/div&gt;" style="text;strokeColor=none;fillColor=none;align=left;verticalAlign=top;spacingLeft=4;spacingRight=4;overflow=hidden;rotatable=0;points=[[0,0.5],[1,0.5]];portConstraint=eastwest;whiteSpace=wrap;html=1;" parent="nr7JULkrr1C1Ja3gNZ5H-84" vertex="1">
          <mxGeometry y="26" width="180" height="54" as="geometry" />
        </mxCell>
        <mxCell id="nr7JULkrr1C1Ja3gNZ5H-86" value="" style="line;strokeWidth=1;fillColor=none;align=left;verticalAlign=middle;spacingTop=-1;spacingLeft=3;spacingRight=3;rotatable=0;labelPosition=right;points=[];portConstraint=eastwest;strokeColor=inherit;" parent="nr7JULkrr1C1Ja3gNZ5H-84" vertex="1">
          <mxGeometry y="80" width="180" height="8" as="geometry" />
        </mxCell>
        <mxCell id="nr7JULkrr1C1Ja3gNZ5H-87" value="+ assignBranch(Branch)&lt;div&gt;+ revokeBranch(Branch)&lt;/div&gt;" style="text;strokeColor=none;fillColor=none;align=left;verticalAlign=top;spacingLeft=4;spacingRight=4;overflow=hidden;rotatable=0;points=[[0,0.5],[1,0.5]];portConstraint=eastwest;whiteSpace=wrap;html=1;" parent="nr7JULkrr1C1Ja3gNZ5H-84" vertex="1">
          <mxGeometry y="88" width="180" height="42" as="geometry" />
        </mxCell>
        <mxCell id="nr7JULkrr1C1Ja3gNZ5H-88" style="edgeStyle=orthogonalEdgeStyle;rounded=0;orthogonalLoop=1;jettySize=auto;html=1;entryX=0.5;entryY=0;entryDx=0;entryDy=0;" parent="1" source="nr7JULkrr1C1Ja3gNZ5H-80" target="nr7JULkrr1C1Ja3gNZ5H-84" edge="1">
          <mxGeometry relative="1" as="geometry" />
        </mxCell>
        <mxCell id="nr7JULkrr1C1Ja3gNZ5H-125" style="edgeStyle=orthogonalEdgeStyle;rounded=0;orthogonalLoop=1;jettySize=auto;html=1;entryX=0.5;entryY=0;entryDx=0;entryDy=0;shape=link;" parent="1" source="nr7JULkrr1C1Ja3gNZ5H-128" target="nr7JULkrr1C1Ja3gNZ5H-100" edge="1">
          <mxGeometry relative="1" as="geometry" />
        </mxCell>
        <mxCell id="nr7JULkrr1C1Ja3gNZ5H-89" value="BranchAdmin" style="swimlane;fontStyle=1;align=center;verticalAlign=top;childLayout=stackLayout;horizontal=1;startSize=26;horizontalStack=0;resizeParent=1;resizeParentMax=0;resizeLast=0;collapsible=1;marginBottom=0;whiteSpace=wrap;html=1;" parent="1" vertex="1">
          <mxGeometry x="1310" y="165" width="180" height="130" as="geometry" />
        </mxCell>
        <mxCell id="nr7JULkrr1C1Ja3gNZ5H-90" value="- id: string&lt;div&gt;- user_id: string&lt;/div&gt;&lt;div&gt;- managedBranch: Branch&lt;/div&gt;" style="text;strokeColor=none;fillColor=none;align=left;verticalAlign=top;spacingLeft=4;spacingRight=4;overflow=hidden;rotatable=0;points=[[0,0.5],[1,0.5]];portConstraint=eastwest;whiteSpace=wrap;html=1;" parent="nr7JULkrr1C1Ja3gNZ5H-89" vertex="1">
          <mxGeometry y="26" width="180" height="54" as="geometry" />
        </mxCell>
        <mxCell id="nr7JULkrr1C1Ja3gNZ5H-91" value="" style="line;strokeWidth=1;fillColor=none;align=left;verticalAlign=middle;spacingTop=-1;spacingLeft=3;spacingRight=3;rotatable=0;labelPosition=right;points=[];portConstraint=eastwest;strokeColor=inherit;" parent="nr7JULkrr1C1Ja3gNZ5H-89" vertex="1">
          <mxGeometry y="80" width="180" height="8" as="geometry" />
        </mxCell>
        <mxCell id="nr7JULkrr1C1Ja3gNZ5H-92" value="+ assignBranch(Branch)&lt;div&gt;+ changeBranch(Branch)&lt;/div&gt;" style="text;strokeColor=none;fillColor=none;align=left;verticalAlign=top;spacingLeft=4;spacingRight=4;overflow=hidden;rotatable=0;points=[[0,0.5],[1,0.5]];portConstraint=eastwest;whiteSpace=wrap;html=1;" parent="nr7JULkrr1C1Ja3gNZ5H-89" vertex="1">
          <mxGeometry y="88" width="180" height="42" as="geometry" />
        </mxCell>
        <mxCell id="nr7JULkrr1C1Ja3gNZ5H-95" value="Staff" style="swimlane;fontStyle=1;align=center;verticalAlign=top;childLayout=stackLayout;horizontal=1;startSize=26;horizontalStack=0;resizeParent=1;resizeParentMax=0;resizeLast=0;collapsible=1;marginBottom=0;whiteSpace=wrap;html=1;" parent="1" vertex="1">
          <mxGeometry x="1570" y="180" width="180" height="160" as="geometry" />
        </mxCell>
        <mxCell id="nr7JULkrr1C1Ja3gNZ5H-96" value="- id: string&lt;div&gt;- user_id: string&lt;/div&gt;&lt;div&gt;- branch: Branch&lt;/div&gt;&lt;div&gt;- position: string&lt;/div&gt;&lt;div&gt;- department: string&lt;/div&gt;" style="text;strokeColor=none;fillColor=none;align=left;verticalAlign=top;spacingLeft=4;spacingRight=4;overflow=hidden;rotatable=0;points=[[0,0.5],[1,0.5]];portConstraint=eastwest;whiteSpace=wrap;html=1;" parent="nr7JULkrr1C1Ja3gNZ5H-95" vertex="1">
          <mxGeometry y="26" width="180" height="84" as="geometry" />
        </mxCell>
        <mxCell id="nr7JULkrr1C1Ja3gNZ5H-97" value="" style="line;strokeWidth=1;fillColor=none;align=left;verticalAlign=middle;spacingTop=-1;spacingLeft=3;spacingRight=3;rotatable=0;labelPosition=right;points=[];portConstraint=eastwest;strokeColor=inherit;" parent="nr7JULkrr1C1Ja3gNZ5H-95" vertex="1">
          <mxGeometry y="110" width="180" height="8" as="geometry" />
        </mxCell>
        <mxCell id="nr7JULkrr1C1Ja3gNZ5H-98" value="+ assignBranch(Branch)&lt;div&gt;+ changeBranch(Branch)&lt;/div&gt;" style="text;strokeColor=none;fillColor=none;align=left;verticalAlign=top;spacingLeft=4;spacingRight=4;overflow=hidden;rotatable=0;points=[[0,0.5],[1,0.5]];portConstraint=eastwest;whiteSpace=wrap;html=1;" parent="nr7JULkrr1C1Ja3gNZ5H-95" vertex="1">
          <mxGeometry y="118" width="180" height="42" as="geometry" />
        </mxCell>
        <mxCell id="nr7JULkrr1C1Ja3gNZ5H-100" value="Branch" style="swimlane;fontStyle=1;align=center;verticalAlign=top;childLayout=stackLayout;horizontal=1;startSize=26;horizontalStack=0;resizeParent=1;resizeParentMax=0;resizeLast=0;collapsible=1;marginBottom=0;whiteSpace=wrap;html=1;" parent="1" vertex="1">
          <mxGeometry x="1420" y="450" width="330" height="150" as="geometry" />
        </mxCell>
        <mxCell id="nr7JULkrr1C1Ja3gNZ5H-101" value="- id: string&lt;div&gt;- address: string&lt;/div&gt;&lt;div&gt;- postal_code: string&lt;/div&gt;&lt;div&gt;- branch_staff: List[User]&lt;/div&gt;&lt;div&gt;- region: Region&lt;/div&gt;" style="text;strokeColor=none;fillColor=none;align=left;verticalAlign=top;spacingLeft=4;spacingRight=4;overflow=hidden;rotatable=0;points=[[0,0.5],[1,0.5]];portConstraint=eastwest;whiteSpace=wrap;html=1;" parent="nr7JULkrr1C1Ja3gNZ5H-100" vertex="1">
          <mxGeometry y="26" width="330" height="74" as="geometry" />
        </mxCell>
        <mxCell id="nr7JULkrr1C1Ja3gNZ5H-102" value="" style="line;strokeWidth=1;fillColor=none;align=left;verticalAlign=middle;spacingTop=-1;spacingLeft=3;spacingRight=3;rotatable=0;labelPosition=right;points=[];portConstraint=eastwest;strokeColor=inherit;" parent="nr7JULkrr1C1Ja3gNZ5H-100" vertex="1">
          <mxGeometry y="100" width="330" height="8" as="geometry" />
        </mxCell>
        <mxCell id="nr7JULkrr1C1Ja3gNZ5H-103" value="&lt;div&gt;+ addStaffMember()&lt;/div&gt;&lt;div&gt;+ removeStaffMember()&lt;/div&gt;" style="text;strokeColor=none;fillColor=none;align=left;verticalAlign=top;spacingLeft=4;spacingRight=4;overflow=hidden;rotatable=0;points=[[0,0.5],[1,0.5]];portConstraint=eastwest;whiteSpace=wrap;html=1;" parent="nr7JULkrr1C1Ja3gNZ5H-100" vertex="1">
          <mxGeometry y="108" width="330" height="42" as="geometry" />
        </mxCell>
        <mxCell id="nr7JULkrr1C1Ja3gNZ5H-104" value="Region" style="swimlane;fontStyle=1;align=center;verticalAlign=top;childLayout=stackLayout;horizontal=1;startSize=26;horizontalStack=0;resizeParent=1;resizeParentMax=0;resizeLast=0;collapsible=1;marginBottom=0;whiteSpace=wrap;html=1;" parent="1" vertex="1">
          <mxGeometry x="850" y="450" width="330" height="150" as="geometry" />
        </mxCell>
        <mxCell id="nr7JULkrr1C1Ja3gNZ5H-105" value="- id: string&lt;div&gt;- regionName: string&lt;/div&gt;&lt;div&gt;- regionLocation: string (could be enum of countries)&lt;/div&gt;&lt;div&gt;- branches: List[Branch]&lt;/div&gt;&lt;div&gt;- admin: Admin&lt;/div&gt;" style="text;strokeColor=none;fillColor=none;align=left;verticalAlign=top;spacingLeft=4;spacingRight=4;overflow=hidden;rotatable=0;points=[[0,0.5],[1,0.5]];portConstraint=eastwest;whiteSpace=wrap;html=1;" parent="nr7JULkrr1C1Ja3gNZ5H-104" vertex="1">
          <mxGeometry y="26" width="330" height="74" as="geometry" />
        </mxCell>
        <mxCell id="nr7JULkrr1C1Ja3gNZ5H-106" value="" style="line;strokeWidth=1;fillColor=none;align=left;verticalAlign=middle;spacingTop=-1;spacingLeft=3;spacingRight=3;rotatable=0;labelPosition=right;points=[];portConstraint=eastwest;strokeColor=inherit;" parent="nr7JULkrr1C1Ja3gNZ5H-104" vertex="1">
          <mxGeometry y="100" width="330" height="8" as="geometry" />
        </mxCell>
        <mxCell id="nr7JULkrr1C1Ja3gNZ5H-107" value="+ addBranch(Branch)&lt;div&gt;+ removeBranch&lt;/div&gt;" style="text;strokeColor=none;fillColor=none;align=left;verticalAlign=top;spacingLeft=4;spacingRight=4;overflow=hidden;rotatable=0;points=[[0,0.5],[1,0.5]];portConstraint=eastwest;whiteSpace=wrap;html=1;" parent="nr7JULkrr1C1Ja3gNZ5H-104" vertex="1">
          <mxGeometry y="108" width="330" height="42" as="geometry" />
        </mxCell>
        <mxCell id="nr7JULkrr1C1Ja3gNZ5H-109" value="1" style="text;html=1;align=center;verticalAlign=middle;whiteSpace=wrap;rounded=0;" parent="1" vertex="1">
          <mxGeometry x="1020" y="310" width="30" height="30" as="geometry" />
        </mxCell>
        <mxCell id="nr7JULkrr1C1Ja3gNZ5H-110" value="0..*" style="text;html=1;align=center;verticalAlign=middle;whiteSpace=wrap;rounded=0;" parent="1" vertex="1">
          <mxGeometry x="1020" y="410" width="30" height="30" as="geometry" />
        </mxCell>
        <mxCell id="nr7JULkrr1C1Ja3gNZ5H-112" style="edgeStyle=orthogonalEdgeStyle;rounded=0;orthogonalLoop=1;jettySize=auto;html=1;entryX=-0.002;entryY=0.904;entryDx=0;entryDy=0;entryPerimeter=0;shape=link;" parent="1" source="nr7JULkrr1C1Ja3gNZ5H-114" target="nr7JULkrr1C1Ja3gNZ5H-101" edge="1">
          <mxGeometry relative="1" as="geometry" />
        </mxCell>
        <mxCell id="nr7JULkrr1C1Ja3gNZ5H-113" value="1" style="text;html=1;align=center;verticalAlign=middle;whiteSpace=wrap;rounded=0;" parent="1" vertex="1">
          <mxGeometry x="1180" y="500" width="30" height="30" as="geometry" />
        </mxCell>
        <mxCell id="nr7JULkrr1C1Ja3gNZ5H-115" value="0..*" style="text;html=1;align=center;verticalAlign=middle;whiteSpace=wrap;rounded=0;" parent="1" vertex="1">
          <mxGeometry x="1390" y="500" width="30" height="30" as="geometry" />
        </mxCell>
        <mxCell id="nr7JULkrr1C1Ja3gNZ5H-126" value="1" style="text;html=1;align=center;verticalAlign=middle;whiteSpace=wrap;rounded=0;" parent="1" vertex="1">
          <mxGeometry x="1400" y="295" width="30" height="30" as="geometry" />
        </mxCell>
        <mxCell id="nr7JULkrr1C1Ja3gNZ5H-127" value="1" style="text;html=1;align=center;verticalAlign=middle;whiteSpace=wrap;rounded=0;" parent="1" vertex="1">
          <mxGeometry x="1590" y="420" width="30" height="30" as="geometry" />
        </mxCell>
        <mxCell id="nr7JULkrr1C1Ja3gNZ5H-129" value="" style="edgeStyle=orthogonalEdgeStyle;rounded=0;orthogonalLoop=1;jettySize=auto;html=1;entryX=0.5;entryY=0;entryDx=0;entryDy=0;shape=link;" parent="1" source="nr7JULkrr1C1Ja3gNZ5H-89" target="nr7JULkrr1C1Ja3gNZ5H-128" edge="1">
          <mxGeometry relative="1" as="geometry">
            <mxPoint x="1335" y="310" as="sourcePoint" />
            <mxPoint x="1585" y="450" as="targetPoint" />
          </mxGeometry>
        </mxCell>
        <mxCell id="nr7JULkrr1C1Ja3gNZ5H-128" value="Manages" style="text;html=1;align=center;verticalAlign=middle;whiteSpace=wrap;rounded=0;" parent="1" vertex="1">
          <mxGeometry x="1450" y="360" width="70" height="30" as="geometry" />
        </mxCell>
        <mxCell id="nr7JULkrr1C1Ja3gNZ5H-131" value="" style="edgeStyle=orthogonalEdgeStyle;rounded=0;orthogonalLoop=1;jettySize=auto;html=1;entryX=-0.002;entryY=0.904;entryDx=0;entryDy=0;entryPerimeter=0;shape=link;" parent="1" source="nr7JULkrr1C1Ja3gNZ5H-104" target="nr7JULkrr1C1Ja3gNZ5H-114" edge="1">
          <mxGeometry relative="1" as="geometry">
            <mxPoint x="1185" y="525" as="sourcePoint" />
            <mxPoint x="1419" y="525" as="targetPoint" />
          </mxGeometry>
        </mxCell>
        <mxCell id="nr7JULkrr1C1Ja3gNZ5H-114" value="contains" style="text;html=1;align=center;verticalAlign=middle;whiteSpace=wrap;rounded=0;" parent="1" vertex="1">
          <mxGeometry x="1270" y="490" width="70" height="30" as="geometry" />
        </mxCell>
        <mxCell id="nr7JULkrr1C1Ja3gNZ5H-132" value="" style="edgeStyle=orthogonalEdgeStyle;rounded=0;orthogonalLoop=1;jettySize=auto;html=1;shape=link;" parent="1" source="nr7JULkrr1C1Ja3gNZ5H-84" target="nr7JULkrr1C1Ja3gNZ5H-111" edge="1">
          <mxGeometry relative="1" as="geometry">
            <mxPoint x="1020" y="310" as="sourcePoint" />
            <mxPoint x="1015" y="450" as="targetPoint" />
          </mxGeometry>
        </mxCell>
        <mxCell id="nr7JULkrr1C1Ja3gNZ5H-111" value="Manages" style="text;html=1;align=center;verticalAlign=middle;whiteSpace=wrap;rounded=0;" parent="1" vertex="1">
          <mxGeometry x="970" y="360" width="70" height="30" as="geometry" />
        </mxCell>
        <mxCell id="nr7JULkrr1C1Ja3gNZ5H-133" style="edgeStyle=orthogonalEdgeStyle;rounded=0;orthogonalLoop=1;jettySize=auto;html=1;entryX=0.848;entryY=0.077;entryDx=0;entryDy=0;entryPerimeter=0;shape=link;" parent="1" source="nr7JULkrr1C1Ja3gNZ5H-134" target="nr7JULkrr1C1Ja3gNZ5H-100" edge="1">
          <mxGeometry relative="1" as="geometry" />
        </mxCell>
        <mxCell id="nr7JULkrr1C1Ja3gNZ5H-135" value="" style="edgeStyle=orthogonalEdgeStyle;rounded=0;orthogonalLoop=1;jettySize=auto;html=1;entryX=0.848;entryY=0.077;entryDx=0;entryDy=0;entryPerimeter=0;shape=link;" parent="1" source="nr7JULkrr1C1Ja3gNZ5H-95" target="nr7JULkrr1C1Ja3gNZ5H-134" edge="1">
          <mxGeometry relative="1" as="geometry">
            <mxPoint x="1660" y="340" as="sourcePoint" />
            <mxPoint x="1700" y="460" as="targetPoint" />
          </mxGeometry>
        </mxCell>
        <mxCell id="nr7JULkrr1C1Ja3gNZ5H-134" value="works at" style="text;html=1;align=center;verticalAlign=middle;whiteSpace=wrap;rounded=0;" parent="1" vertex="1">
          <mxGeometry x="1650" y="380" width="70" height="30" as="geometry" />
        </mxCell>
        <mxCell id="nr7JULkrr1C1Ja3gNZ5H-136" value="1" style="text;html=1;align=center;verticalAlign=middle;whiteSpace=wrap;rounded=0;" parent="1" vertex="1">
          <mxGeometry x="1700" y="430" width="30" height="30" as="geometry" />
        </mxCell>
        <mxCell id="nr7JULkrr1C1Ja3gNZ5H-137" value="0..*" style="text;html=1;align=center;verticalAlign=middle;whiteSpace=wrap;rounded=0;" parent="1" vertex="1">
          <mxGeometry x="1630" y="340" width="30" height="30" as="geometry" />
        </mxCell>
      </root>
    </mxGraphModel>
  </diagram>
</mxfile>
